<svg xmlns="http://www.w3.org/2000/svg" viewBox="0 0 600 360">
  <defs>
    <linearGradient id="complainGrad" x1="0" y1="0" x2="1" y2="1">
      <stop offset="0%" stop-color="#F1F5F9"/>
      <stop offset="100%" stop-color="#E2E8F0"/>
    </linearGradient>
  </defs>
  <rect width="600" height="360" fill="url(#complainGrad)"/>
  
  <!-- Header -->
  <rect x="0" y="0" width="600" height="70" fill="#1E293B"/>
  <rect x="40" y="25" width="140" height="20" rx="4" fill="#6366F1"/>
  <rect x="460" y="25" width="100" height="20" rx="4" fill="#64748B"/>
  
  <!-- Main Content -->
  <rect x="40" y="90" width="520" height="240" rx="8" fill="#FFFFFF" stroke="#E2E8F0"/>
  
  <!-- Form Fields -->
  <rect x="60" y="110" width="480" height="12" rx="2" fill="#E2E8F0"/>
  <rect x="60" y="105" width="80" height="6" rx="1" fill="#64748B"/>
  
  <rect x="60" y="140" width="480" height="12" rx="2" fill="#E2E8F0"/>
  <rect x="60" y="135" width="100" height="6" rx="1" fill="#64748B"/>
  
  <rect x="60" y="170" width="480" height="60" rx="4" fill="#E2E8F0"/>
  <rect x="60" y="165" width="120" height="6" rx="1" fill="#64748B"/>
  
  <!-- Status Badges -->
  <rect x="60" y="250" width="100" height="24" rx="12" fill="#FEF3C7"/>
  <rect x="65" y="255" width="60" height="6" rx="1" fill="#92400E"/>
  
  <rect x="180" y="250" width="100" height="24" rx="12" fill="#D1FAE5"/>
  <rect x="185" y="255" width="70" height="6" rx="1" fill="#065F46"/>
  
  <rect x="300" y="250" width="100" height="24" rx="12" fill="#FEE2E2"/>
  <rect x="305" y="255" width="80" height="6" rx="1" fill="#991B1B"/>
  
  <!-- Action Buttons -->
  <rect x="420" y="250" width="100" height="32" rx="6" fill="#6366F1"/>
  <rect x="440" y="260" width="60" height="6" rx="1" fill="#FFFFFF"/>
  
  <!-- Table/List View Indicator -->
  <rect x="60" y="290" width="480" height="30" rx="4" fill="#F8FAFC" stroke="#E2E8F0"/>
  <rect x="70" y="298" width="200" height="6" rx="1" fill="#1E293B"/>
  <rect x="70" y="308" width="150" height="4" rx="1" fill="#64748B"/>
  <rect x="280" y="298" width="60" height="14" rx="7" fill="#6366F1" opacity="0.2"/>
  
  <!-- Icons -->
  <circle cx="540" cy="280" r="10" fill="#6366F1" opacity="0.2"/>
  <rect x="535" y="277" width="10" height="6" rx="1" fill="#6366F1"/>
</svg>
