<svg xmlns="http://www.w3.org/2000/svg" viewBox="0 0 600 360">
  <defs>
    <linearGradient id="staynestGrad" x1="0" y1="0" x2="1" y2="1">
      <stop offset="0%" stop-color="#F1F5F9"/>
      <stop offset="100%" stop-color="#E2E8F0"/>
    </linearGradient>
  </defs>
  <rect width="600" height="360" fill="url(#staynestGrad)"/>
  
  <!-- Header -->
  <rect x="0" y="0" width="600" height="60" fill="#1E293B"/>
  <rect x="40" y="20" width="120" height="20" rx="4" fill="#6366F1"/>
  <rect x="480" y="20" width="80" height="20" rx="4" fill="#64748B"/>
  
  <!-- Sidebar -->
  <rect x="0" y="60" width="80" height="300" fill="#0F172A"/>
  <circle cx="40" cy="100" r="12" fill="#6366F1"/>
  <rect x="20" y="130" width="40" height="4" rx="2" fill="#64748B"/>
  <rect x="20" y="145" width="40" height="4" rx="2" fill="#64748B"/>
  <rect x="20" y="160" width="40" height="4" rx="2" fill="#64748B"/>
  
  <!-- Main Content - Booking Cards -->
  <rect x="100" y="80" width="480" height="40" rx="6" fill="#FFFFFF" stroke="#E2E8F0"/>
  <rect x="120" y="90" width="200" height="8" rx="4" fill="#1E293B"/>
  <rect x="120" y="105" width="150" height="6" rx="3" fill="#64748B"/>
  <rect x="340" y="95" width="80" height="20" rx="4" fill="#6366F1"/>
  
  <rect x="100" y="140" width="480" height="40" rx="6" fill="#FFFFFF" stroke="#E2E8F0"/>
  <rect x="120" y="150" width="180" height="8" rx="4" fill="#1E293B"/>
  <rect x="120" y="165" width="140" height="6" rx="3" fill="#64748B"/>
  <rect x="340" y="155" width="80" height="20" rx="4" fill="#6366F1"/>
  
  <rect x="100" y="200" width="480" height="40" rx="6" fill="#FFFFFF" stroke="#E2E8F0"/>
  <rect x="120" y="210" width="190" height="8" rx="4" fill="#1E293B"/>
  <rect x="120" y="225" width="160" height="6" rx="3" fill="#64748B"/>
  <rect x="340" y="215" width="80" height="20" rx="4" fill="#6366F1"/>
  
  <!-- Calendar Icon -->
  <rect x="420" y="90" width="24" height="24" rx="4" fill="#6366F1" opacity="0.2"/>
  <rect x="430" y="100" width="4" height="4" rx="1" fill="#6366F1"/>
  <rect x="437" y="100" width="4" height="4" rx="1" fill="#6366F1"/>
  <rect x="444" y="100" width="4" height="4" rx="1" fill="#6366F1"/>
  
  <!-- Search Bar -->
  <rect x="100" y="260" width="480" height="40" rx="6" fill="#FFFFFF" stroke="#E2E8F0"/>
  <circle cx="125" cy="280" r="8" fill="#64748B" opacity="0.3"/>
  <rect x="140" y="275" width="200" height="10" rx="2" fill="#E2E8F0"/>
</svg>
